<?xml version="1.0" standalone="no"?>
<!DOCTYPE svg PUBLIC "-//W3C//DTD SVG 20010904//EN"
 "http://www.w3.org/TR/2001/REC-SVG-20010904/DTD/svg10.dtd">
<svg version="1.0" xmlns="http://www.w3.org/2000/svg"
 width="885.000000pt" height="885.000000pt" viewBox="0 0 885.000000 885.000000"
 preserveAspectRatio="xMidYMid meet">
<metadata>
Created by potrace 1.11, written by Peter Selinger 2001-2013
</metadata>
<g transform="translate(0.000000,885.000000) scale(0.100000,-0.100000)"
fill="#000000" stroke="none">
<path d="M4153 8543 c-3 -8 -24 -13 -54 -13 -27 0 -49 -4 -49 -10 0 -5 -20
-10 -45 -10 -33 0 -45 -4 -45 -15 0 -9 -9 -15 -25 -15 -14 0 -25 -4 -25 -10 0
-5 -16 -10 -35 -10 -22 0 -38 -6 -41 -15 -4 -8 -15 -15 -25 -15 -10 0 -19 -4
-19 -10 0 -5 -11 -10 -24 -10 -13 0 -26 -7 -30 -15 -3 -8 -15 -15 -26 -15 -11
0 -20 -4 -20 -10 0 -5 -10 -10 -23 -10 -15 0 -29 -9 -37 -25 -8 -16 -22 -25
-37 -25 -13 0 -23 -4 -23 -10 0 -5 -7 -10 -15 -10 -8 0 -15 -7 -15 -15 0 -9
-9 -15 -21 -15 -22 0 -49 -22 -49 -39 0 -6 -9 -11 -21 -11 -11 0 -41 -22 -68
-50 -26 -27 -55 -50 -65 -50 -9 0 -16 -4 -16 -10 0 -5 -5 -10 -11 -10 -14 0
-39 -25 -39 -39 0 -6 -5 -11 -11 -11 -11 0 -39 -25 -39 -35 0 -10 -28 -35 -39
-35 -6 0 -11 -5 -11 -11 0 -14 -25 -39 -39 -39 -6 0 -11 -5 -11 -11 0 -11 -25
-39 -35 -39 -10 0 -35 -28 -35 -39 0 -6 -5 -11 -11 -11 -16 0 -39 -26 -39 -45
0 -9 -22 -39 -50 -66 -27 -27 -50 -56 -50 -64 0 -8 -4 -15 -10 -15 -5 0 -10
-7 -10 -15 0 -8 -5 -15 -11 -15 -17 0 -39 -27 -39 -49 0 -12 -6 -21 -15 -21
-8 0 -15 -6 -15 -13 0 -7 -9 -19 -20 -27 -11 -8 -20 -22 -20 -31 0 -9 -11 -25
-25 -35 -14 -10 -25 -29 -25 -41 0 -14 -6 -23 -15 -23 -8 0 -15 -7 -15 -15 0
-8 -4 -15 -10 -15 -5 0 -10 -11 -10 -25 0 -16 -6 -25 -15 -25 -9 0 -15 -9 -15
-21 0 -22 -22 -49 -39 -49 -6 0 -11 -11 -11 -25 0 -14 -4 -25 -10 -25 -5 0
-10 -9 -10 -21 0 -22 -22 -49 -39 -49 -6 0 -11 -11 -11 -25 0 -14 -4 -25 -10
-25 -5 0 -10 -11 -10 -25 0 -16 -6 -25 -15 -25 -9 0 -15 -9 -15 -25 0 -14 -4
-25 -10 -25 -5 0 -10 -11 -10 -25 0 -16 -6 -25 -15 -25 -9 0 -15 -9 -15 -25 0
-14 -4 -25 -10 -25 -5 0 -10 -9 -10 -20 0 -11 -7 -23 -15 -26 -8 -4 -15 -15
-15 -25 0 -10 -4 -19 -10 -19 -5 0 -10 -11 -10 -25 0 -14 -4 -25 -10 -25 -5 0
-10 -16 -10 -35 0 -22 -6 -38 -15 -41 -8 -4 -15 -15 -15 -25 0 -10 -4 -19 -10
-19 -5 0 -10 -16 -10 -35 0 -22 -6 -38 -15 -41 -8 -4 -15 -17 -15 -30 0 -13
-4 -24 -10 -24 -5 0 -10 -16 -10 -35 0 -24 -5 -35 -15 -35 -10 0 -15 -11 -15
-35 0 -19 -4 -35 -10 -35 -5 0 -10 -18 -10 -40 0 -29 -4 -40 -15 -40 -10 0
-15 -11 -15 -35 0 -19 -4 -35 -10 -35 -5 0 -10 -22 -10 -50 0 -34 -4 -50 -13
-50 -9 0 -12 -18 -9 -70 4 -59 2 -70 -12 -70 -24 0 -24 -165 0 -174 13 -5 15
-16 12 -51 -4 -34 -2 -45 8 -45 8 0 14 -10 14 -25 0 -14 5 -25 10 -25 6 0 10
-11 10 -25 0 -16 6 -25 15 -25 9 0 15 -9 15 -25 0 -14 5 -25 10 -25 6 0 10
-11 10 -25 0 -14 5 -25 11 -25 17 0 39 -27 39 -49 0 -12 6 -21 15 -21 8 0 15
-5 15 -11 0 -11 25 -39 35 -39 13 0 35 -29 35 -46 0 -9 16 -31 35 -50 19 -18
35 -37 35 -43 0 -6 5 -11 11 -11 14 0 39 -25 39 -39 0 -6 5 -11 11 -11 6 0 41
-31 79 -70 41 -43 76 -70 89 -70 12 0 21 -5 21 -11 0 -11 25 -39 35 -39 10 0
35 -28 35 -39 0 -6 9 -11 21 -11 26 0 49 -23 49 -49 0 -19 -6 -21 -60 -21 -47
0 -60 -3 -60 -15 0 -11 -12 -15 -50 -15 -27 0 -50 -4 -50 -10 0 -5 -16 -10
-35 -10 -24 0 -35 -5 -35 -15 0 -10 -11 -15 -35 -15 -19 0 -35 -4 -35 -10 0
-5 -11 -10 -24 -10 -13 0 -26 -7 -30 -15 -3 -8 -14 -15 -23 -15 -10 0 -25 -9
-33 -20 -8 -11 -25 -20 -37 -20 -14 0 -23 -6 -23 -15 0 -8 -7 -15 -15 -15 -8
0 -15 -4 -15 -10 0 -5 -9 -10 -20 -10 -11 0 -23 -7 -26 -15 -4 -8 -15 -15 -26
-15 -21 0 -48 -22 -48 -39 0 -6 -10 -11 -23 -11 -12 0 -31 -11 -41 -25 -10
-14 -27 -25 -37 -25 -11 0 -19 -4 -19 -10 0 -5 -7 -10 -15 -10 -8 0 -15 -4
-15 -10 0 -5 -9 -10 -20 -10 -11 0 -23 -7 -26 -15 -4 -8 -15 -15 -25 -15 -10
0 -19 -4 -19 -10 0 -5 -7 -10 -15 -10 -8 0 -15 -7 -15 -15 0 -9 -9 -15 -23
-15 -12 0 -31 -11 -41 -25 -10 -14 -26 -25 -35 -25 -9 0 -25 -11 -35 -25 -10
-14 -27 -25 -37 -25 -11 0 -19 -4 -19 -10 0 -5 -10 -10 -21 -10 -12 0 -32 -11
-45 -25 -13 -14 -30 -25 -39 -25 -19 0 -45 -23 -45 -39 0 -6 -10 -11 -23 -11
-12 0 -31 -11 -41 -25 -10 -14 -27 -25 -37 -25 -11 0 -19 -4 -19 -10 0 -5 -7
-10 -15 -10 -8 0 -15 -5 -15 -11 0 -11 -25 -39 -35 -39 -14 0 -35 -30 -35 -49
0 -12 -4 -21 -10 -21 -5 0 -10 -11 -10 -25 0 -16 -6 -25 -15 -25 -11 0 -15
-11 -15 -40 0 -22 -4 -40 -10 -40 -7 0 -10 -642 -10 -1905 l0 -1905 3088 2
3087 3 3 1918 c2 1700 0 1917 -13 1917 -10 0 -15 11 -15 35 0 19 -4 35 -10 35
-5 0 -10 11 -10 25 0 16 -6 25 -15 25 -8 0 -15 7 -15 15 0 8 -4 15 -10 15 -5
0 -10 9 -10 20 0 15 -7 20 -25 20 -14 0 -25 5 -25 11 0 14 -25 39 -39 39 -6 0
-11 7 -11 15 0 9 -9 15 -21 15 -22 0 -49 22 -49 39 0 6 -11 11 -25 11 -14 0
-25 5 -25 10 0 6 -11 10 -25 10 -14 0 -25 5 -25 11 0 16 -27 39 -46 39 -9 0
-27 11 -40 25 -13 14 -30 25 -39 25 -19 0 -45 23 -45 39 0 6 -10 11 -23 11
-12 0 -31 11 -41 25 -10 14 -27 25 -37 25 -11 0 -19 5 -19 10 0 6 -11 10 -25
10 -16 0 -25 6 -25 15 0 8 -7 15 -15 15 -8 0 -15 5 -15 10 0 6 -9 10 -21 10
-22 0 -49 22 -49 39 0 6 -9 11 -21 11 -22 0 -49 22 -49 39 0 6 -11 11 -25 11
-14 0 -25 5 -25 10 0 6 -11 10 -25 10 -16 0 -25 6 -25 15 0 8 -7 15 -15 15 -8
0 -15 5 -15 10 0 6 -7 10 -15 10 -9 0 -26 11 -39 25 -13 14 -33 25 -45 25 -11
0 -21 5 -21 10 0 6 -9 10 -20 10 -11 0 -23 7 -26 15 -4 8 -17 15 -30 15 -13 0
-24 5 -24 10 0 6 -9 10 -19 10 -10 0 -21 7 -25 15 -3 9 -19 15 -41 15 -19 0
-35 5 -35 10 0 6 -27 10 -60 10 -47 0 -60 3 -60 15 0 12 -13 15 -60 15 -57 0
-60 1 -60 25 0 19 5 25 21 25 11 0 35 16 53 35 19 19 41 35 50 35 9 0 16 5 16
10 0 6 7 10 15 10 8 0 15 5 15 11 0 14 25 39 39 39 6 0 11 5 11 11 0 14 25 39
39 39 6 0 11 5 11 11 0 11 25 39 35 39 8 0 35 27 35 35 0 10 28 35 39 35 6 0
11 5 11 11 0 14 25 39 39 39 6 0 11 5 11 11 0 14 25 39 39 39 6 0 11 7 11 15
0 8 5 15 10 15 6 0 10 7 10 15 0 9 16 31 35 49 19 19 35 44 35 55 0 12 6 21
15 21 8 0 15 7 15 15 0 8 5 15 10 15 6 0 10 9 10 20 0 11 7 23 15 26 8 4 15
15 15 25 0 10 5 19 10 19 6 0 10 11 10 25 0 16 6 25 15 25 11 0 15 12 15 50 0
28 5 50 10 50 6 0 10 52 10 135 0 83 -4 135 -10 135 -5 0 -10 23 -10 50 0 38
-4 50 -15 50 -11 0 -15 12 -15 45 0 25 -4 45 -10 45 -5 0 -10 18 -10 40 0 29
-4 40 -15 40 -10 0 -15 11 -15 35 0 19 -4 35 -10 35 -5 0 -10 15 -10 34 0 21
-6 36 -15 40 -9 3 -15 19 -15 41 0 19 -4 35 -10 35 -5 0 -10 11 -10 25 0 14
-4 25 -10 25 -5 0 -10 16 -10 35 0 24 -5 35 -15 35 -9 0 -15 9 -15 25 0 14 -4
25 -10 25 -5 0 -10 11 -10 25 0 16 -6 25 -15 25 -10 0 -15 11 -15 35 0 19 -4
35 -10 35 -5 0 -10 11 -10 25 0 16 -6 25 -15 25 -9 0 -15 9 -15 25 0 14 -4 25
-10 25 -5 0 -10 11 -10 25 0 16 -6 25 -15 25 -9 0 -15 9 -15 25 0 14 -4 25
-10 25 -5 0 -10 9 -10 20 0 11 -4 20 -10 20 -5 0 -10 9 -10 20 0 12 -11 31
-25 44 -14 13 -25 33 -25 45 0 12 -6 21 -15 21 -9 0 -15 9 -15 21 0 22 -22 49
-39 49 -6 0 -11 11 -11 25 0 14 -4 25 -10 25 -5 0 -10 11 -10 25 0 14 -5 25
-11 25 -16 0 -39 27 -39 46 0 9 -11 27 -25 40 -14 13 -25 30 -25 39 0 8 -4 15
-10 15 -5 0 -10 7 -10 15 0 8 -7 15 -15 15 -9 0 -15 9 -15 21 0 22 -22 49 -39
49 -6 0 -11 7 -11 15 0 8 -4 15 -10 15 -5 0 -10 11 -10 25 0 14 -5 25 -10 25
-14 0 -60 46 -60 60 0 5 -7 10 -15 10 -8 0 -15 9 -15 20 0 19 -121 150 -138
150 -5 0 -15 11 -22 25 -7 14 -17 25 -22 25 -4 0 -8 11 -8 25 0 19 -5 25 -21
25 -13 0 -56 35 -115 95 -56 57 -102 95 -114 95 -11 0 -20 7 -20 15 0 8 -5 15
-11 15 -14 0 -39 25 -39 39 0 6 -10 11 -23 11 -12 0 -31 11 -41 25 -10 14 -27
25 -37 25 -11 0 -19 5 -19 10 0 6 -7 10 -15 10 -8 0 -15 5 -15 10 0 6 -9 10
-20 10 -11 0 -23 7 -26 15 -4 8 -17 15 -30 15 -13 0 -24 5 -24 10 0 6 -9 10
-19 10 -10 0 -21 7 -25 15 -3 8 -15 15 -26 15 -11 0 -20 5 -20 10 0 6 -11 10
-25 10 -16 0 -25 6 -25 15 0 9 -9 15 -25 15 -14 0 -25 5 -25 10 0 6 -15 10
-34 10 -21 0 -36 6 -40 15 -3 9 -19 15 -41 15 -19 0 -35 5 -35 10 0 6 -22 10
-50 10 -33 0 -50 4 -50 13 0 9 -35 12 -141 12 -104 0 -143 -3 -146 -12z m147
-1188 l0 -905 -330 0 c-213 0 -330 -4 -330 -10 0 -6 -40 -10 -100 -10 -85 0
-100 -2 -100 -16 0 -14 -11 -16 -70 -12 -52 3 -70 0 -70 -9 0 -9 -18 -13 -60
-13 -33 0 -60 -4 -60 -10 0 -5 -22 -10 -50 -10 -38 0 -50 -4 -50 -15 0 -11
-12 -15 -50 -15 -27 0 -50 -4 -50 -10 0 -5 -15 -10 -34 -10 -21 0 -36 -6 -40
-15 -3 -9 -19 -15 -41 -15 -19 0 -35 -4 -35 -10 0 -5 -16 -10 -35 -10 -24 0
-35 -5 -35 -15 0 -10 -11 -15 -35 -15 -19 0 -35 -4 -35 -10 0 -5 -18 -10 -40
-10 -29 0 -40 -4 -40 -15 0 -9 -9 -15 -25 -15 -14 0 -25 -4 -25 -10 0 -5 -9
-10 -20 -10 -11 0 -20 -4 -20 -10 0 -5 -11 -10 -25 -10 -16 0 -25 -6 -25 -15
0 -9 -9 -15 -25 -15 -14 0 -25 -4 -25 -10 0 -5 -11 -10 -25 -10 -16 0 -25 -6
-25 -15 0 -9 -9 -15 -25 -15 -22 0 -25 4 -25 40 0 22 5 40 10 40 6 0 10 9 10
20 0 11 7 23 15 26 9 4 15 19 15 40 0 19 5 34 10 34 6 0 10 11 10 25 0 16 6
25 15 25 10 0 15 11 15 35 0 19 5 35 10 35 6 0 10 11 10 25 0 16 6 25 15 25
10 0 15 11 15 35 0 19 5 35 10 35 6 0 10 11 10 25 0 14 5 25 10 25 6 0 10 11
10 25 0 16 6 25 15 25 9 0 15 9 15 25 0 14 5 25 10 25 6 0 10 9 10 20 0 11 7
23 15 26 8 4 15 17 15 30 0 13 5 24 10 24 6 0 10 9 10 20 0 11 7 23 15 26 8 4
15 17 15 30 0 13 5 24 10 24 6 0 10 9 10 19 0 10 7 21 15 25 8 3 15 15 15 26
0 11 5 20 10 20 6 0 10 11 10 25 0 14 5 25 10 25 6 0 10 11 10 25 0 14 5 25
11 25 17 0 39 27 39 49 0 12 6 21 15 21 9 0 15 9 15 25 0 14 5 25 10 25 6 0
10 7 10 15 0 8 7 15 15 15 9 0 15 9 15 25 0 14 5 25 10 25 6 0 10 7 10 15 0 9
16 31 35 49 19 19 35 44 35 55 0 12 6 21 15 21 8 0 15 7 15 15 0 8 5 15 10 15
6 0 10 7 10 16 0 18 53 74 70 74 5 0 10 11 10 25 0 14 5 25 10 25 6 0 10 7 10
15 0 8 5 15 11 15 11 0 39 25 39 35 0 10 28 35 39 35 6 0 11 7 11 15 0 8 5 15
10 15 6 0 10 7 10 15 0 16 104 125 120 125 5 0 10 7 10 15 0 8 9 15 20 15 11
0 20 5 20 10 0 6 7 10 15 10 8 0 15 5 15 11 0 11 25 39 35 39 10 0 35 28 35
39 0 6 9 11 21 11 11 0 35 16 53 35 19 19 43 35 55 35 11 0 21 5 21 11 0 17
27 39 48 39 11 0 22 7 26 15 3 8 15 15 26 15 11 0 20 5 20 10 0 6 11 10 25 10
14 0 25 5 25 10 0 6 11 10 25 10 16 0 25 6 25 15 0 10 11 15 35 15 19 0 35 5
35 10 0 6 15 10 34 10 21 0 36 6 40 15 4 10 20 15 51 15 25 0 45 5 45 10 0 6
40 10 100 10 l100 0 0 -905z m1050 -1204 c0 -5 10 -11 23 -13 14 -2 23 -11 25
-25 2 -13 8 -23 13 -23 5 0 9 -49 9 -110 0 -67 -4 -110 -10 -110 -6 0 -10 -40
-10 -100 0 -82 -3 -100 -15 -100 -12 0 -15 -17 -15 -95 0 -57 -4 -95 -10 -95
-6 0 -10 -35 -10 -85 0 -63 -4 -87 -14 -91 -10 -4 -12 -26 -8 -100 4 -82 3
-94 -12 -94 -13 0 -16 -12 -16 -75 0 -43 -4 -75 -10 -75 -5 0 -10 -9 -10 -20
0 -11 -7 -23 -15 -26 -8 -4 -15 -15 -15 -26 0 -19 -21 -48 -35 -48 -10 0 -35
-28 -35 -39 0 -6 -11 -11 -25 -11 -14 0 -25 -4 -25 -10 0 -5 -11 -10 -25 -10
-16 0 -25 -6 -25 -15 0 -9 -9 -15 -23 -15 -12 0 -31 -11 -41 -25 -10 -14 -27
-25 -37 -25 -11 0 -19 -4 -19 -10 0 -5 -10 -10 -23 -10 -12 0 -31 -11 -41 -25
-10 -14 -27 -25 -37 -25 -11 0 -19 -4 -19 -10 0 -5 -11 -10 -25 -10 -16 0 -25
-6 -25 -15 0 -9 -9 -15 -21 -15 -12 0 -32 -11 -45 -25 -13 -14 -30 -25 -39
-25 -8 0 -15 -4 -15 -10 0 -5 -11 -10 -24 -10 -13 0 -26 -7 -30 -15 -3 -8 -15
-15 -26 -15 -11 0 -20 -4 -20 -10 0 -5 -7 -10 -15 -10 -8 0 -15 -4 -15 -10 0
-5 -16 -10 -35 -10 -24 0 -35 -5 -35 -15 0 -12 -13 -15 -60 -15 -33 0 -60 -4
-60 -10 0 -6 -28 -10 -65 -10 -37 0 -65 4 -65 10 0 6 -27 10 -60 10 -47 0 -60
3 -60 15 0 9 -9 15 -25 15 -14 0 -25 5 -25 10 0 6 -11 10 -25 10 -14 0 -25 5
-25 10 0 6 -9 10 -20 10 -11 0 -20 7 -20 15 0 9 -9 15 -21 15 -12 0 -32 11
-45 25 -13 14 -32 25 -44 25 -11 0 -20 5 -20 10 0 6 -8 10 -19 10 -10 0 -27
11 -37 25 -10 14 -29 25 -41 25 -14 0 -23 6 -23 15 0 9 -9 15 -25 15 -14 0
-25 5 -25 10 0 6 -9 10 -21 10 -22 0 -49 22 -49 39 0 6 -11 11 -25 11 -14 0
-25 5 -25 10 0 6 -9 10 -20 10 -11 0 -23 7 -26 15 -4 8 -15 15 -26 15 -21 0
-48 22 -48 39 0 6 -9 11 -21 11 -26 0 -49 23 -49 49 0 12 -5 21 -11 21 -20 0
-39 29 -39 60 0 18 -6 33 -15 36 -12 5 -15 26 -15 100 0 56 -4 94 -10 94 -6 0
-10 35 -10 84 0 65 -3 85 -15 90 -12 4 -15 25 -15 101 0 57 -4 95 -10 95 -6 0
-10 38 -10 94 0 76 -3 95 -16 100 -12 5 -15 21 -13 88 1 55 -2 83 -9 86 -18 6
-16 160 2 178 8 8 19 14 25 14 6 0 11 5 11 10 0 40 -22 39 1088 40 648 0 1062
-4 1062 -9z m1248 -3689 c2 -22 -2 -34 -12 -38 -13 -5 -16 -23 -16 -90 0 -49
-4 -84 -10 -84 -6 0 -10 -30 -10 -70 0 -54 -4 -72 -15 -76 -12 -5 -15 -25 -15
-90 0 -49 -4 -84 -10 -84 -6 0 -10 -30 -10 -70 0 -56 -3 -70 -15 -70 -12 0
-15 -16 -15 -85 0 -50 -4 -85 -10 -85 -6 0 -10 -32 -10 -75 0 -60 -3 -75 -15
-75 -12 0 -15 -16 -15 -85 0 -50 -4 -85 -10 -85 -6 0 -10 -32 -10 -75 0 -54
-4 -75 -13 -75 -9 0 -11 -20 -9 -80 3 -66 1 -81 -12 -86 -13 -5 -16 -21 -16
-80 0 -43 -4 -74 -10 -74 -6 0 -10 -33 -10 -80 0 -62 -3 -82 -15 -86 -11 -5
-15 -23 -15 -75 0 -39 -4 -69 -10 -69 -6 0 -10 -32 -10 -75 0 -60 -3 -75 -15
-75 -12 0 -15 -13 -15 -60 l0 -60 -1951 0 c-1677 0 -1952 2 -1965 14 -9 10
-14 37 -14 85 0 59 -3 71 -16 71 -15 0 -16 11 -12 85 5 68 3 85 -8 85 -11 0
-14 18 -14 75 0 43 -4 75 -10 75 -6 0 -10 30 -10 69 0 52 -4 70 -15 75 -12 4
-15 24 -15 86 0 47 -4 80 -10 80 -6 0 -10 32 -10 75 0 60 -3 75 -15 75 -12 0
-15 16 -15 85 0 50 -4 85 -10 85 -6 0 -10 32 -10 75 0 60 -3 75 -15 75 -12 0
-15 16 -15 85 0 50 -4 85 -10 85 -6 0 -10 32 -10 75 0 63 -3 75 -16 75 -15 0
-16 10 -11 81 4 64 2 81 -9 86 -10 4 -14 24 -14 74 0 39 -4 69 -10 69 -6 0
-10 32 -10 75 0 60 -3 75 -15 75 -12 0 -15 16 -15 85 0 50 -4 85 -10 85 -5 0
-10 7 -10 15 0 13 260 15 2308 13 l2307 -3 3 -33z"/>
</g>
</svg>
